# File exported by Houdini 19.5.752 (www.sidefx.com)
# 24 points
# 56 vertices
# 14 primitives
# Bounds: [-0.238060355, -0.371596217, 0] to [0.239964753, 0, 0.901643276]
g 
v -0.020833334 0 0 0.0824142098 0.0477757566 0.039947167
v 0 0 0 0.0824142098 0.0477757566 0.039947167
v 0.020833334 0 0 0.0824142098 0.0477757566 0.039947167
v -0.0321406275 -0.00585768232 0.142695799 0.0824142098 0.0477757566 0.039947167
v 0.000307281851 -0.00585768418 0.142695799 0.0824142098 0.0477757566 0.039947167
v 0.0327551886 -0.00585768558 0.142695799 0.0824142098 0.0477757566 0.039947167
v -0.134444878 -0.0277935136 0.283938378 0.105734155 0.132283956 0.0292377658
v 0.000601508887 -0.0277920011 0.283938706 0.105734155 0.132283956 0.0292377658
v 0.135647908 -0.0277904887 0.283939004 0.105734155 0.132283956 0.0292377658
v -0.222760275 -0.0685332268 0.421125352 0.160039753 0.329079777 0.00429858081
v -0.000324883993 -0.0685317293 0.421125859 0.160039753 0.329079777 0.00429858081
v 0.222110495 -0.0685302317 0.421126366 0.160039753 0.329079777 0.00429858081
v -0.238060355 -0.125014037 0.552629113 0.169400007 0.363000005 0
v 0.000952198519 -0.12501438 0.552628934 0.169400007 0.363000005 0
v 0.239964753 -0.125014722 0.552628756 0.169400007 0.363000005 0
v -0.198407829 -0.19573991 0.676938534 0.169400007 0.363000005 0
v 0.000772884465 -0.195738435 0.676939487 0.169400007 0.363000005 0
v 0.199953586 -0.19573696 0.676940382 0.169400007 0.363000005 0
v -0.110470906 -0.278193891 0.79352212 0.169400007 0.363000005 0
v 0.00212413375 -0.278198957 0.793518484 0.169400007 0.363000005 0
v 0.114719167 -0.278203994 0.793514729 0.169400007 0.363000005 0
v -0.00171065982 -0.371596217 0.901643276 0.169400007 0.363000005 0
v -0.00171065982 -0.371596217 0.901643276 0.169400007 0.363000005 0
v -0.00171065982 -0.371596217 0.901643276 0.169400007 0.363000005 0
vt 0.454425991 0 0.388767034
vt 0.430771798 0.142857149 0.375530154
vt 0.498650879 0.142857149 0.375529677
vt 0.498008072 0 0.388767034
vt 0.566529989 0.142857149 0.37552917
vt 0.541590214 0 0.388767034
vt 0.216757402 0.285714298 0.554596364
vt 0.499266416 0.285714298 0.555098593
vt 0.781775355 0.285714298 0.555600822
vt 0.0320068561 0.428571433 0.236696228
vt 0.49732843 0.428571433 0.237209707
vt 0.962650001 0.428571433 0.237723172
vt 0 0.571428597 0.0904948786
vt 0.5 0.571428597 0.0903733075
vt 1 0.571428597 0.0902517289
vt 0.0829507187 0.714285731 0
vt 0.499624878 0.714285731 0.000567252748
vt 0.916299045 0.714285731 0.0011345055
vt 0.26690951 0.857142627 0.216623083
vt 0.502451658 0.857142866 0.21458137
vt 0.737993717 0.857143104 0.212539673
vt 0.494429499 1 1
vn -0 0.999158502 0.0410155952
vn 5.70678118e-08 0.994140565 0.108094715
vn 4.99896124e-08 0.995246232 0.0973911211
vn -0 0.999158502 0.0410156064
vn -0 0.999158502 0.0410156064
vn 4.99896124e-08 0.995246232 0.0973911211
vn 4.28004014e-08 0.994129896 0.108193204
vn -0 0.999158561 0.0410156213
vn 5.70678118e-08 0.994140565 0.108094715
vn -1.14531849e-05 0.969623685 0.244601458
vn -1.14350132e-05 0.975598156 0.219563484
vn 4.99896124e-08 0.995246232 0.0973911211
vn 4.99896124e-08 0.995246232 0.0973911211
vn -1.14350132e-05 0.975598156 0.219563484
vn -1.13992292e-05 0.969632924 0.244564638
vn 4.28004014e-08 0.994129896 0.108193204
vn -1.14531849e-05 0.969623685 0.244601458
vn -7.10301583e-06 0.935367525 0.353677332
vn -7.1058771e-06 0.940336049 0.340246975
vn -1.14350132e-05 0.975598156 0.219563484
vn -1.14350132e-05 0.975598156 0.219563484
vn -7.1058771e-06 0.940336049 0.340246975
vn -7.10300219e-06 0.935348153 0.353728533
vn -1.13992292e-05 0.969632924 0.244564638
vn -7.10301583e-06 0.935367525 0.353677332
vn 1.61694334e-06 0.8968665 0.442301333
vn 1.617056e-06 0.89539665 0.445269376
vn -7.1058771e-06 0.940336049 0.340246975
vn -7.1058771e-06 0.940336049 0.340246975
vn 1.617056e-06 0.89539665 0.445269376
vn 1.6169538e-06 0.896739364 0.442559153
vn -7.10300219e-06 0.935348153 0.353728533
vn 1.61694334e-06 0.8968665 0.442301333
vn -8.81722735e-06 0.851327538 0.52463454
vn -8.73903718e-06 0.843813062 0.536637187
vn 1.617056e-06 0.89539665 0.445269376
vn 1.617056e-06 0.89539665 0.445269376
vn -8.73903718e-06 0.843813062 0.536637187
vn -8.66021128e-06 0.85117507 0.52488184
vn 1.6169538e-06 0.896739364 0.442559153
vn -8.81722735e-06 0.851327538 0.52463454
vn 5.53706996e-05 0.799199998 0.60106504
vn 5.55614351e-05 0.787508786 0.616303444
vn -8.73903718e-06 0.843813062 0.536637187
vn -8.73903718e-06 0.843813062 0.536637187
vn 5.55614351e-05 0.787508786 0.616303444
vn 5.57956373e-05 0.799491942 0.600676894
vn -8.66021128e-06 0.85117507 0.52488184
vn 5.53706996e-05 0.799199998 0.60106504
vn 5.51708217e-05 0.756763995 0.653688192
vn 5.5398832e-05 0.756764054 0.653688192
vn 5.55614351e-05 0.787508786 0.616303444
vn 5.55614351e-05 0.787508786 0.616303444
vn 5.5398832e-05 0.756764054 0.653688192
vn 5.56339619e-05 0.756763995 0.653688192
vn 5.57956373e-05 0.799491942 0.600676894
g 
f 1/1/1 4/2/2 5/3/3 2/4/4
f 2/4/5 5/3/6 6/5/7 3/6/8
f 4/2/9 7/7/10 8/8/11 5/3/12
f 5/3/13 8/8/14 9/9/15 6/5/16
f 7/7/17 10/10/18 11/11/19 8/8/20
f 8/8/21 11/11/22 12/12/23 9/9/24
f 10/10/25 13/13/26 14/14/27 11/11/28
f 11/11/29 14/14/30 15/15/31 12/12/32
f 13/13/33 16/16/34 17/17/35 14/14/36
f 14/14/37 17/17/38 18/18/39 15/15/40
f 16/16/41 19/19/42 20/20/43 17/17/44
f 17/17/45 20/20/46 21/21/47 18/18/48
f 19/19/49 22/22/50 23/22/51 20/20/52
f 20/20/53 23/22/54 24/22/55 21/21/56
